<svg width="24" height="24" viewBox="0 0 24 24" fill="none" xmlns="http://www.w3.org/2000/svg">
<path fill-rule="evenodd" clip-rule="evenodd" d="M7 1C3.68629 1 1 3.68629 1 7V17C1 20.3137 3.68629 23 7 23H17C20.3137 23 23 20.3137 23 17V7C23 3.68629 20.3137 1 17 1H7ZM12.7276 10.1819C12.8281 9.78006 12.5837 9.37285 12.1819 9.27239C11.7801 9.17193 11.3729 9.41625 11.2724 9.8181L10.4277 13.1968C10.2305 13.9858 10.8272 14.75 11.6404 14.75H14C14.4142 14.75 14.75 14.4142 14.75 14C14.75 13.5858 14.4142 13.25 14 13.25H11.9606L12.7276 10.1819ZM7 6.75C6.30964 6.75 5.75 7.30964 5.75 8C5.75 8.69036 6.30964 9.25 7 9.25C7.69036 9.25 8.25 8.69036 8.25 8C8.25 7.30964 7.69036 6.75 7 6.75ZM4.25 8C4.25 6.48122 5.48122 5.25 7 5.25C7.81737 5.25 8.55145 5.6066 9.05516 6.17271C9.19121 6.12613 9.3622 6.07387 9.5681 6.02239C10.1258 5.88298 10.9368 5.75 12 5.75C13.0632 5.75 13.8742 5.88298 14.4319 6.02239C14.6378 6.07387 14.8088 6.12613 14.9448 6.17271C15.4485 5.6066 16.1826 5.25 17 5.25C18.5188 5.25 19.75 6.48122 19.75 8C19.75 9.51878 18.5188 10.75 17 10.75C15.4812 10.75 14.25 9.51878 14.25 8C14.25 7.84244 14.2633 7.68798 14.2887 7.53766C14.2235 7.51836 14.15 7.49808 14.0681 7.47761C13.6258 7.36702 12.9368 7.25 12 7.25C11.0632 7.25 10.3742 7.36702 9.9319 7.47761C9.85001 7.49808 9.77648 7.51836 9.7113 7.53766C9.73675 7.68798 9.75 7.84244 9.75 8C9.75 9.51878 8.51878 10.75 7 10.75C5.48122 10.75 4.25 9.51878 4.25 8ZM15.75 8C15.75 7.30964 16.3096 6.75 17 6.75C17.6904 6.75 18.25 7.30964 18.25 8C18.25 8.69036 17.6904 9.25 17 9.25C16.3096 9.25 15.75 8.69036 15.75 8ZM8.26923 16.3L8.26905 16.2999L8.26893 16.2999L8.26888 16.2999C7.88237 16.1514 7.44864 16.3443 7.29999 16.7308C7.1513 17.1174 7.34416 17.5513 7.73077 17.7L8 17C7.73077 17.7 7.73088 17.7001 7.73101 17.7001L7.73131 17.7002L7.73209 17.7005L7.73437 17.7014L7.74175 17.7042L7.76759 17.7139C7.78966 17.7221 7.82131 17.7338 7.86185 17.7484C7.94291 17.7777 8.05966 17.8188 8.20658 17.8678C8.5001 17.9656 8.91576 18.0955 9.40913 18.2253C10.3873 18.4827 11.7079 18.75 13 18.75C14.3062 18.75 15.1856 18.4771 15.7642 18.1556C16.052 17.9958 16.2576 17.8281 16.3991 17.6866C16.4696 17.6161 16.5235 17.5528 16.5634 17.5011C16.5833 17.4752 16.5997 17.4524 16.6129 17.433C16.6195 17.4233 16.6253 17.4145 16.6303 17.4066L16.6373 17.3955L16.6403 17.3905L16.6418 17.3881L16.6424 17.387C16.6428 17.3864 16.6431 17.3859 16 17L16.6431 17.3859C16.8562 17.0307 16.7411 16.57 16.3859 16.3569C16.0397 16.1492 15.5934 16.2533 15.3736 16.5875C15.3689 16.5933 15.3576 16.6067 15.3384 16.6259C15.2924 16.6719 15.198 16.7542 15.0358 16.8444C14.7144 17.0229 14.0938 17.25 13 17.25C11.8921 17.25 10.7127 17.0173 9.79087 16.7747C9.33424 16.6545 8.94989 16.5344 8.68092 16.4447C8.54659 16.4 8.44146 16.3629 8.37096 16.3375C8.33572 16.3248 8.30917 16.315 8.29198 16.3086L8.27332 16.3015L8.26942 16.3001L8.26923 16.3Z" fill="#E3E2DF"/>
</svg>
